<mxfile host="app.diagrams.net" modified="2022-11-08T16:24:04.331Z" agent="5.0 (Macintosh; Intel Mac OS X 10_15_7) AppleWebKit/537.36 (KHTML, like Gecko) Chrome/107.0.0.0 Safari/537.36" etag="yymi66kYSUCgKdB9sBZt" version="20.5.1" type="github">
  <diagram id="lOl-ZhYQnWzm9-qVgaAJ" name="Page-1">
    <mxGraphModel dx="786" dy="416" grid="1" gridSize="10" guides="1" tooltips="1" connect="1" arrows="1" fold="1" page="1" pageScale="1" pageWidth="827" pageHeight="1169" math="0" shadow="0">
      <root>
        <mxCell id="0" />
        <mxCell id="1" parent="0" />
        <mxCell id="wnXFvV-Xrk-nOBf85rZt-5" style="edgeStyle=orthogonalEdgeStyle;curved=1;rounded=0;orthogonalLoop=1;jettySize=auto;html=1;entryX=0;entryY=0.5;entryDx=0;entryDy=0;" edge="1" parent="1" source="wnXFvV-Xrk-nOBf85rZt-1" target="wnXFvV-Xrk-nOBf85rZt-2">
          <mxGeometry relative="1" as="geometry" />
        </mxCell>
        <mxCell id="wnXFvV-Xrk-nOBf85rZt-1" value="SSH session" style="rounded=0;whiteSpace=wrap;html=1;" vertex="1" parent="1">
          <mxGeometry x="360" y="170" width="100" height="40" as="geometry" />
        </mxCell>
        <mxCell id="wnXFvV-Xrk-nOBf85rZt-2" value="Server" style="rounded=0;whiteSpace=wrap;html=1;" vertex="1" parent="1">
          <mxGeometry x="510" y="220" width="100" height="40" as="geometry" />
        </mxCell>
        <mxCell id="wnXFvV-Xrk-nOBf85rZt-4" style="edgeStyle=orthogonalEdgeStyle;rounded=0;orthogonalLoop=1;jettySize=auto;html=1;entryX=0;entryY=0.5;entryDx=0;entryDy=0;curved=1;" edge="1" parent="1" source="wnXFvV-Xrk-nOBf85rZt-3" target="wnXFvV-Xrk-nOBf85rZt-1">
          <mxGeometry relative="1" as="geometry" />
        </mxCell>
        <mxCell id="wnXFvV-Xrk-nOBf85rZt-3" value="Client" style="rounded=0;whiteSpace=wrap;html=1;" vertex="1" parent="1">
          <mxGeometry x="200" y="220" width="100" height="40" as="geometry" />
        </mxCell>
      </root>
    </mxGraphModel>
  </diagram>
</mxfile>
